G04 #@! TF.GenerationSoftware,KiCad,Pcbnew,5.0.2+dfsg1-1*
G04 #@! TF.CreationDate,2020-10-29T13:50:34+01:00*
G04 #@! TF.ProjectId,led_panel,6c65645f-7061-46e6-956c-2e6b69636164,rev?*
G04 #@! TF.SameCoordinates,Original*
G04 #@! TF.FileFunction,Copper,L1,Top*
G04 #@! TF.FilePolarity,Positive*
%FSLAX46Y46*%
G04 Gerber Fmt 4.6, Leading zero omitted, Abs format (unit mm)*
G04 Created by KiCad (PCBNEW 5.0.2+dfsg1-1) date Thu 29 Oct 2020 01:50:34 PM CET*
%MOMM*%
%LPD*%
G01*
G04 APERTURE LIST*
G04 #@! TA.AperFunction,ComponentPad*
%ADD10C,2.100000*%
G04 #@! TD*
G04 #@! TA.AperFunction,ComponentPad*
%ADD11R,2.100000X2.100000*%
G04 #@! TD*
G04 #@! TA.AperFunction,ComponentPad*
%ADD12C,1.200000*%
G04 #@! TD*
G04 #@! TA.AperFunction,ComponentPad*
%ADD13R,3.960000X1.980000*%
G04 #@! TD*
G04 #@! TA.AperFunction,ComponentPad*
%ADD14O,3.960000X1.980000*%
G04 #@! TD*
G04 #@! TA.AperFunction,ComponentPad*
%ADD15R,2.000000X1.905000*%
G04 #@! TD*
G04 #@! TA.AperFunction,ComponentPad*
%ADD16O,2.000000X1.905000*%
G04 #@! TD*
G04 #@! TA.AperFunction,ComponentPad*
%ADD17C,1.600000*%
G04 #@! TD*
G04 #@! TA.AperFunction,ComponentPad*
%ADD18O,1.600000X1.600000*%
G04 #@! TD*
G04 #@! TA.AperFunction,ComponentPad*
%ADD19R,1.700000X1.700000*%
G04 #@! TD*
G04 #@! TA.AperFunction,ComponentPad*
%ADD20O,1.700000X1.700000*%
G04 #@! TD*
G04 #@! TA.AperFunction,ComponentPad*
%ADD21C,1.524000*%
G04 #@! TD*
G04 #@! TA.AperFunction,Conductor*
%ADD22C,0.600000*%
G04 #@! TD*
G04 #@! TA.AperFunction,Conductor*
%ADD23C,2.500000*%
G04 #@! TD*
G04 #@! TA.AperFunction,Conductor*
%ADD24C,0.250000*%
G04 #@! TD*
G04 #@! TA.AperFunction,Conductor*
%ADD25C,0.400000*%
G04 #@! TD*
G04 APERTURE END LIST*
D10*
G04 #@! TO.P,J1,4*
G04 #@! TO.N,Net-(J1-Pad4)*
X118460001Y-115805001D03*
G04 #@! TO.P,J1,3*
G04 #@! TO.N,Net-(J1-Pad3)*
X123460001Y-115805001D03*
G04 #@! TO.P,J1,2*
G04 #@! TO.N,Net-(J1-Pad2)*
X128460001Y-115805001D03*
D11*
G04 #@! TO.P,J1,1*
G04 #@! TO.N,+12V*
X133460001Y-115805001D03*
G04 #@! TD*
D10*
G04 #@! TO.P,J3,4*
G04 #@! TO.N,Net-(J3-Pad4)*
X147460001Y-115805001D03*
G04 #@! TO.P,J3,3*
G04 #@! TO.N,Net-(J3-Pad3)*
X152460001Y-115805001D03*
G04 #@! TO.P,J3,2*
G04 #@! TO.N,Net-(J3-Pad2)*
X157460001Y-115805001D03*
D11*
G04 #@! TO.P,J3,1*
G04 #@! TO.N,+12V*
X162460001Y-115805001D03*
G04 #@! TD*
D12*
G04 #@! TO.P,C1,2*
G04 #@! TO.N,Earth*
X113960001Y-52305001D03*
G04 #@! TO.P,C1,1*
G04 #@! TO.N,+12V*
X113960001Y-50305001D03*
G04 #@! TD*
G04 #@! TO.P,C2,1*
G04 #@! TO.N,/5V*
X105960001Y-64805001D03*
G04 #@! TO.P,C2,2*
G04 #@! TO.N,Earth*
X105960001Y-62805001D03*
G04 #@! TD*
D13*
G04 #@! TO.P,J2,1*
G04 #@! TO.N,Earth*
X100960001Y-57305001D03*
D14*
G04 #@! TO.P,J2,2*
G04 #@! TO.N,+12V*
X100960001Y-52305001D03*
G04 #@! TD*
D15*
G04 #@! TO.P,Q1,1*
G04 #@! TO.N,/GREEN*
X156140001Y-99305001D03*
D16*
G04 #@! TO.P,Q1,2*
G04 #@! TO.N,Net-(J1-Pad2)*
X156140001Y-101845001D03*
G04 #@! TO.P,Q1,3*
G04 #@! TO.N,Earth*
X156140001Y-104385001D03*
G04 #@! TD*
D15*
G04 #@! TO.P,Q2,1*
G04 #@! TO.N,/GREEN*
X167060001Y-99305001D03*
D16*
G04 #@! TO.P,Q2,2*
G04 #@! TO.N,Net-(J3-Pad2)*
X167060001Y-101845001D03*
G04 #@! TO.P,Q2,3*
G04 #@! TO.N,Earth*
X167060001Y-104385001D03*
G04 #@! TD*
D15*
G04 #@! TO.P,Q3,1*
G04 #@! TO.N,/RED*
X145220001Y-99305001D03*
D16*
G04 #@! TO.P,Q3,2*
G04 #@! TO.N,Net-(J1-Pad3)*
X145220001Y-101845001D03*
G04 #@! TO.P,Q3,3*
G04 #@! TO.N,Earth*
X145220001Y-104385001D03*
G04 #@! TD*
G04 #@! TO.P,Q4,3*
G04 #@! TO.N,Earth*
X134300001Y-104385001D03*
G04 #@! TO.P,Q4,2*
G04 #@! TO.N,Net-(J3-Pad3)*
X134300001Y-101845001D03*
D15*
G04 #@! TO.P,Q4,1*
G04 #@! TO.N,/RED*
X134300001Y-99305001D03*
G04 #@! TD*
D16*
G04 #@! TO.P,Q5,3*
G04 #@! TO.N,Earth*
X123380001Y-104385001D03*
G04 #@! TO.P,Q5,2*
G04 #@! TO.N,Net-(J1-Pad4)*
X123380001Y-101845001D03*
D15*
G04 #@! TO.P,Q5,1*
G04 #@! TO.N,/BLUE*
X123380001Y-99305001D03*
G04 #@! TD*
D16*
G04 #@! TO.P,Q6,3*
G04 #@! TO.N,Earth*
X112460001Y-104585001D03*
G04 #@! TO.P,Q6,2*
G04 #@! TO.N,Net-(J3-Pad4)*
X112460001Y-102045001D03*
D15*
G04 #@! TO.P,Q6,1*
G04 #@! TO.N,/BLUE*
X112460001Y-99505001D03*
G04 #@! TD*
D17*
G04 #@! TO.P,R5,1*
G04 #@! TO.N,/5V*
X116960001Y-60305001D03*
D18*
G04 #@! TO.P,R5,2*
G04 #@! TO.N,Net-(R5-Pad2)*
X124580001Y-60305001D03*
G04 #@! TD*
D17*
G04 #@! TO.P,R6,1*
G04 #@! TO.N,Net-(R5-Pad2)*
X116960001Y-64305001D03*
D18*
G04 #@! TO.P,R6,2*
G04 #@! TO.N,Earth*
X124580001Y-64305001D03*
G04 #@! TD*
D19*
G04 #@! TO.P,SW1,1*
G04 #@! TO.N,/ROT+*
X141035001Y-64305001D03*
D20*
G04 #@! TO.P,SW1,2*
G04 #@! TO.N,/ROT-*
X138495001Y-64305001D03*
G04 #@! TO.P,SW1,3*
G04 #@! TO.N,/BUTTON*
X135955001Y-64305001D03*
G04 #@! TO.P,SW1,4*
G04 #@! TO.N,/3V3*
X133415001Y-64305001D03*
G04 #@! TO.P,SW1,5*
G04 #@! TO.N,Earth*
X130875001Y-64305001D03*
G04 #@! TD*
D21*
G04 #@! TO.P,U1,1*
G04 #@! TO.N,Net-(U1-Pad1)*
X160510001Y-69240001D03*
G04 #@! TO.P,U1,2*
G04 #@! TO.N,Net-(U1-Pad2)*
X157970001Y-69240001D03*
G04 #@! TO.P,U1,3*
G04 #@! TO.N,Net-(U1-Pad3)*
X155430001Y-69240001D03*
G04 #@! TO.P,U1,4*
G04 #@! TO.N,Net-(U1-Pad4)*
X152890001Y-69240001D03*
G04 #@! TO.P,U1,5*
G04 #@! TO.N,Net-(U1-Pad5)*
X150350001Y-69240001D03*
G04 #@! TO.P,U1,6*
G04 #@! TO.N,Net-(U1-Pad6)*
X147810001Y-69240001D03*
G04 #@! TO.P,U1,7*
G04 #@! TO.N,Net-(U1-Pad7)*
X145270001Y-69240001D03*
G04 #@! TO.P,U1,8*
G04 #@! TO.N,Net-(U1-Pad8)*
X142730001Y-69240001D03*
G04 #@! TO.P,U1,9*
G04 #@! TO.N,Net-(U1-Pad9)*
X140190001Y-69240001D03*
G04 #@! TO.P,U1,10*
G04 #@! TO.N,Earth*
X137650001Y-69240001D03*
G04 #@! TO.P,U1,11*
G04 #@! TO.N,/3V3*
X135110001Y-69240001D03*
G04 #@! TO.P,U1,12*
G04 #@! TO.N,Net-(U1-Pad12)*
X132570001Y-69240001D03*
G04 #@! TO.P,U1,13*
G04 #@! TO.N,Net-(U1-Pad13)*
X130030001Y-69240001D03*
G04 #@! TO.P,U1,14*
G04 #@! TO.N,Earth*
X127490001Y-69240001D03*
G04 #@! TO.P,U1,15*
G04 #@! TO.N,/5V*
X124950001Y-69240001D03*
G04 #@! TO.P,U1,16*
G04 #@! TO.N,/3V3*
X124950001Y-92735001D03*
G04 #@! TO.P,U1,17*
G04 #@! TO.N,Earth*
X127490001Y-92735001D03*
G04 #@! TO.P,U1,18*
G04 #@! TO.N,Net-(U1-Pad18)*
X130030001Y-92735001D03*
G04 #@! TO.P,U1,19*
G04 #@! TO.N,/BUTTON*
X132570001Y-92735001D03*
G04 #@! TO.P,U1,20*
G04 #@! TO.N,Net-(U1-Pad20)*
X135110001Y-92735001D03*
G04 #@! TO.P,U1,21*
G04 #@! TO.N,/BLUE*
X137650001Y-92735001D03*
G04 #@! TO.P,U1,22*
G04 #@! TO.N,/RED*
X140190001Y-92735001D03*
G04 #@! TO.P,U1,23*
G04 #@! TO.N,/GREEN*
X142730001Y-92735001D03*
G04 #@! TO.P,U1,24*
G04 #@! TO.N,Earth*
X145270001Y-92735001D03*
G04 #@! TO.P,U1,25*
G04 #@! TO.N,Net-(U1-Pad25)*
X147810001Y-92735001D03*
G04 #@! TO.P,U1,26*
G04 #@! TO.N,/ROT-*
X150350001Y-92735001D03*
G04 #@! TO.P,U1,27*
G04 #@! TO.N,/ROT+*
X152890001Y-92735001D03*
G04 #@! TO.P,U1,28*
G04 #@! TO.N,/SDA*
X155430001Y-92735001D03*
G04 #@! TO.P,U1,29*
G04 #@! TO.N,/SCL*
X157970001Y-92735001D03*
G04 #@! TO.P,U1,30*
G04 #@! TO.N,Net-(U1-Pad30)*
X160510001Y-92735001D03*
G04 #@! TD*
D15*
G04 #@! TO.P,U2,1*
G04 #@! TO.N,Net-(R5-Pad2)*
X112960001Y-62305001D03*
D16*
G04 #@! TO.P,U2,2*
G04 #@! TO.N,/5V*
X112960001Y-59765001D03*
G04 #@! TO.P,U2,3*
G04 #@! TO.N,+12V*
X112960001Y-57225001D03*
G04 #@! TD*
D19*
G04 #@! TO.P,U3,1*
G04 #@! TO.N,Earth*
X166960001Y-64805001D03*
D20*
G04 #@! TO.P,U3,2*
G04 #@! TO.N,/3V3*
X164420001Y-64805001D03*
G04 #@! TO.P,U3,3*
G04 #@! TO.N,/SCL*
X161880001Y-64805001D03*
G04 #@! TO.P,U3,4*
G04 #@! TO.N,/SDA*
X159340001Y-64805001D03*
G04 #@! TD*
D22*
G04 #@! TO.N,Earth*
X105960001Y-62805001D02*
X105960001Y-57305001D01*
X105960001Y-57305001D02*
X100960001Y-57305001D01*
X108960001Y-57305001D02*
X113960001Y-52305001D01*
X105960001Y-57305001D02*
X108960001Y-57305001D01*
X124580001Y-66330001D02*
X127490001Y-69240001D01*
X124580001Y-64305001D02*
X124580001Y-66330001D01*
G04 #@! TO.N,+12V*
X115460001Y-54305001D02*
X115460001Y-51805001D01*
X112960001Y-57225001D02*
X112960001Y-56805001D01*
X112960001Y-56805001D02*
X115460001Y-54305001D01*
G04 #@! TO.N,/5V*
X116420001Y-59765001D02*
X116960001Y-60305001D01*
X112960001Y-59765001D02*
X116420001Y-59765001D01*
X111000001Y-59765001D02*
X112960001Y-59765001D01*
X105960001Y-64805001D02*
X111000001Y-59765001D01*
X110395001Y-69240001D02*
X124950001Y-69240001D01*
X105960001Y-64805001D02*
X110395001Y-69240001D01*
D23*
G04 #@! TO.N,Net-(J1-Pad3)*
X123460001Y-113805001D02*
X123460001Y-115805001D01*
X129460001Y-107805001D02*
X123460001Y-113805001D01*
X135460001Y-107805001D02*
X129460001Y-107805001D01*
X145560001Y-101845001D02*
X141420001Y-101845001D01*
X141420001Y-101845001D02*
X135460001Y-107805001D01*
D24*
G04 #@! TO.N,/GREEN*
X163960001Y-99305001D02*
X167060001Y-99305001D01*
X142730001Y-92735001D02*
X149300001Y-99305001D01*
X149300001Y-99305001D02*
X163960001Y-99305001D01*
G04 #@! TO.N,/RED*
X136407501Y-99305001D02*
X136360001Y-99305001D01*
X140190001Y-92735001D02*
X140190001Y-95522501D01*
X143512501Y-99305001D02*
X145560001Y-99305001D01*
X139960001Y-95752501D02*
X143512501Y-99305001D01*
X139960001Y-95752501D02*
X136407501Y-99305001D01*
X140190001Y-95522501D02*
X139960001Y-95752501D01*
X134347501Y-99305001D02*
X136407501Y-99305001D01*
X134300001Y-99305001D02*
X134347501Y-99305001D01*
G04 #@! TO.N,/BLUE*
X131080001Y-99305001D02*
X127160001Y-99305001D01*
X137650001Y-92735001D02*
X131080001Y-99305001D01*
X127160001Y-99305001D02*
X125910001Y-99305001D01*
X118160001Y-99305001D02*
X117960001Y-99305001D01*
X125910001Y-99305001D02*
X118160001Y-99305001D01*
X112660001Y-99305001D02*
X112460001Y-99505001D01*
X118160001Y-99305001D02*
X112660001Y-99305001D01*
D22*
G04 #@! TO.N,Net-(R5-Pad2)*
X112960001Y-63857501D02*
X112960001Y-62305001D01*
X113407501Y-64305001D02*
X112960001Y-63857501D01*
X116960001Y-64305001D02*
X113407501Y-64305001D01*
X120960001Y-60305001D02*
X124580001Y-60305001D01*
X116960001Y-64305001D02*
X120960001Y-60305001D01*
D24*
G04 #@! TO.N,/ROT+*
X152128002Y-91973002D02*
X152890001Y-92735001D01*
X141460001Y-65830001D02*
X141460001Y-81305001D01*
X141460001Y-81305001D02*
X152128002Y-91973002D01*
X141035001Y-64305001D02*
X141035001Y-65405001D01*
X141035001Y-65405001D02*
X141460001Y-65830001D01*
G04 #@! TO.N,/ROT-*
X149588002Y-91973002D02*
X150350001Y-92735001D01*
X138637002Y-81022002D02*
X149588002Y-91973002D01*
X138637002Y-65649083D02*
X138637002Y-81022002D01*
X138495001Y-65507082D02*
X138637002Y-65649083D01*
X138495001Y-64305001D02*
X138495001Y-65507082D01*
G04 #@! TO.N,/BUTTON*
X133332000Y-91973002D02*
X132570001Y-92735001D01*
X136460001Y-88845001D02*
X133332000Y-91973002D01*
X136460001Y-66012082D02*
X136460001Y-88845001D01*
X135955001Y-64305001D02*
X135955001Y-65507082D01*
X135955001Y-65507082D02*
X136460001Y-66012082D01*
D25*
G04 #@! TO.N,/3V3*
X133415001Y-67545001D02*
X135110001Y-69240001D01*
X133415001Y-64305001D02*
X133415001Y-67545001D01*
X163570002Y-63955002D02*
X164420001Y-64805001D01*
X159420001Y-59805001D02*
X163570002Y-63955002D01*
X137915001Y-59805001D02*
X159420001Y-59805001D01*
X133415001Y-64305001D02*
X137915001Y-59805001D01*
D22*
X135110001Y-82575001D02*
X124950001Y-92735001D01*
X135110001Y-69240001D02*
X135110001Y-82575001D01*
D24*
G04 #@! TO.N,/SDA*
X159340001Y-88825001D02*
X155430001Y-92735001D01*
X159340001Y-64805001D02*
X159340001Y-88825001D01*
G04 #@! TO.N,/SCL*
X161880001Y-88825001D02*
X161880001Y-64805001D01*
X157970001Y-92735001D02*
X161880001Y-88825001D01*
G04 #@! TD*
D22*
G04 #@! TO.N,+12V*
G36*
X185609696Y-52178960D02*
X185460737Y-112805001D01*
X179260001Y-112805001D01*
X179145196Y-112827837D01*
X179039222Y-112901884D01*
X176739222Y-115401884D01*
X176678298Y-115501834D01*
X176660001Y-115605001D01*
X176660001Y-122806286D01*
X130657761Y-123003721D01*
X130608890Y-116455001D01*
X131910001Y-116455001D01*
X131910001Y-116954457D01*
X131986122Y-117138228D01*
X132126774Y-117278881D01*
X132310545Y-117355001D01*
X132810001Y-117355001D01*
X132935001Y-117230001D01*
X132935001Y-116330001D01*
X133985001Y-116330001D01*
X133985001Y-117230001D01*
X134110001Y-117355001D01*
X134609457Y-117355001D01*
X134793228Y-117278881D01*
X134933880Y-117138228D01*
X135010001Y-116954457D01*
X135010001Y-116455001D01*
X134885001Y-116330001D01*
X133985001Y-116330001D01*
X132935001Y-116330001D01*
X132035001Y-116330001D01*
X131910001Y-116455001D01*
X130608890Y-116455001D01*
X130601294Y-115437013D01*
X145610001Y-115437013D01*
X145610001Y-116172989D01*
X145891646Y-116852942D01*
X146412060Y-117373356D01*
X147092013Y-117655001D01*
X147827989Y-117655001D01*
X148507942Y-117373356D01*
X149028356Y-116852942D01*
X149310001Y-116172989D01*
X149310001Y-115437013D01*
X150610001Y-115437013D01*
X150610001Y-116172989D01*
X150891646Y-116852942D01*
X151412060Y-117373356D01*
X152092013Y-117655001D01*
X152827989Y-117655001D01*
X153507942Y-117373356D01*
X154028356Y-116852942D01*
X154310001Y-116172989D01*
X154310001Y-115437013D01*
X155610001Y-115437013D01*
X155610001Y-116172989D01*
X155891646Y-116852942D01*
X156412060Y-117373356D01*
X157092013Y-117655001D01*
X157827989Y-117655001D01*
X158507942Y-117373356D01*
X159028356Y-116852942D01*
X159193188Y-116455001D01*
X160910001Y-116455001D01*
X160910001Y-116954457D01*
X160986122Y-117138228D01*
X161126774Y-117278881D01*
X161310545Y-117355001D01*
X161810001Y-117355001D01*
X161935001Y-117230001D01*
X161935001Y-116330001D01*
X162985001Y-116330001D01*
X162985001Y-117230001D01*
X163110001Y-117355001D01*
X163609457Y-117355001D01*
X163793228Y-117278881D01*
X163933880Y-117138228D01*
X164010001Y-116954457D01*
X164010001Y-116455001D01*
X163885001Y-116330001D01*
X162985001Y-116330001D01*
X161935001Y-116330001D01*
X161035001Y-116330001D01*
X160910001Y-116455001D01*
X159193188Y-116455001D01*
X159310001Y-116172989D01*
X159310001Y-115437013D01*
X159028356Y-114757060D01*
X158926841Y-114655545D01*
X160910001Y-114655545D01*
X160910001Y-115155001D01*
X161035001Y-115280001D01*
X161935001Y-115280001D01*
X161935001Y-114380001D01*
X162985001Y-114380001D01*
X162985001Y-115280001D01*
X163885001Y-115280001D01*
X164010001Y-115155001D01*
X164010001Y-114655545D01*
X163933880Y-114471774D01*
X163793228Y-114331121D01*
X163609457Y-114255001D01*
X163110001Y-114255001D01*
X162985001Y-114380001D01*
X161935001Y-114380001D01*
X161810001Y-114255001D01*
X161310545Y-114255001D01*
X161126774Y-114331121D01*
X160986122Y-114471774D01*
X160910001Y-114655545D01*
X158926841Y-114655545D01*
X158507942Y-114236646D01*
X157827989Y-113955001D01*
X157092013Y-113955001D01*
X156412060Y-114236646D01*
X155891646Y-114757060D01*
X155610001Y-115437013D01*
X154310001Y-115437013D01*
X154028356Y-114757060D01*
X153507942Y-114236646D01*
X152827989Y-113955001D01*
X152092013Y-113955001D01*
X151412060Y-114236646D01*
X150891646Y-114757060D01*
X150610001Y-115437013D01*
X149310001Y-115437013D01*
X149028356Y-114757060D01*
X148507942Y-114236646D01*
X147827989Y-113955001D01*
X147092013Y-113955001D01*
X146412060Y-114236646D01*
X145891646Y-114757060D01*
X145610001Y-115437013D01*
X130601294Y-115437013D01*
X130595462Y-114655545D01*
X131910001Y-114655545D01*
X131910001Y-115155001D01*
X132035001Y-115280001D01*
X132935001Y-115280001D01*
X132935001Y-114380001D01*
X133985001Y-114380001D01*
X133985001Y-115280001D01*
X134885001Y-115280001D01*
X135010001Y-115155001D01*
X135010001Y-114655545D01*
X134933880Y-114471774D01*
X134793228Y-114331121D01*
X134609457Y-114255001D01*
X134110001Y-114255001D01*
X133985001Y-114380001D01*
X132935001Y-114380001D01*
X132810001Y-114255001D01*
X132310545Y-114255001D01*
X132126774Y-114331121D01*
X131986122Y-114471774D01*
X131910001Y-114655545D01*
X130595462Y-114655545D01*
X130562232Y-110202839D01*
X172062154Y-109904993D01*
X172176792Y-109881334D01*
X172273650Y-109815605D01*
X172337982Y-109717814D01*
X172359992Y-109602728D01*
X171959992Y-56802728D01*
X171936287Y-56688100D01*
X171870520Y-56591268D01*
X171772703Y-56526975D01*
X171660586Y-56505002D01*
X120484508Y-56405244D01*
X115272133Y-51192869D01*
X115174806Y-51127837D01*
X115060001Y-51105001D01*
X114721322Y-51105001D01*
X114238478Y-50905001D01*
X114135737Y-50905001D01*
X113960001Y-50729265D01*
X113784265Y-50905001D01*
X113681524Y-50905001D01*
X113166964Y-51118138D01*
X112773138Y-51511964D01*
X112733798Y-51606940D01*
X109235737Y-55105001D01*
X95860001Y-55105001D01*
X95860001Y-53013756D01*
X98659365Y-53013756D01*
X98764565Y-53180801D01*
X99191478Y-53575435D01*
X99736914Y-53776657D01*
X99970001Y-53670001D01*
X99970001Y-52800001D01*
X101950001Y-52800001D01*
X101950001Y-53670001D01*
X102183088Y-53776657D01*
X102728524Y-53575435D01*
X103155437Y-53180801D01*
X103260637Y-53013756D01*
X103222086Y-52800001D01*
X101950001Y-52800001D01*
X99970001Y-52800001D01*
X98697916Y-52800001D01*
X98659365Y-53013756D01*
X95860001Y-53013756D01*
X95860001Y-51596246D01*
X98659365Y-51596246D01*
X98697916Y-51810001D01*
X99970001Y-51810001D01*
X99970001Y-50940001D01*
X101950001Y-50940001D01*
X101950001Y-51810001D01*
X103222086Y-51810001D01*
X103260637Y-51596246D01*
X103155437Y-51429201D01*
X102728524Y-51034567D01*
X102183088Y-50833345D01*
X101950001Y-50940001D01*
X99970001Y-50940001D01*
X99736914Y-50833345D01*
X99191478Y-51034567D01*
X98764565Y-51429201D01*
X98659365Y-51596246D01*
X95860001Y-51596246D01*
X95860001Y-50344431D01*
X112839144Y-50344431D01*
X112909375Y-50697505D01*
X113075890Y-50764848D01*
X113535737Y-50305001D01*
X114384265Y-50305001D01*
X114844112Y-50764848D01*
X115010627Y-50697505D01*
X115080858Y-50265571D01*
X115010627Y-49912497D01*
X114844112Y-49845154D01*
X114384265Y-50305001D01*
X113535737Y-50305001D01*
X113075890Y-49845154D01*
X112909375Y-49912497D01*
X112839144Y-50344431D01*
X95860001Y-50344431D01*
X95860001Y-49420890D01*
X113500154Y-49420890D01*
X113960001Y-49880737D01*
X114419848Y-49420890D01*
X114352505Y-49254375D01*
X113920571Y-49184144D01*
X113567497Y-49254375D01*
X113500154Y-49420890D01*
X95860001Y-49420890D01*
X95860001Y-48697072D01*
X102568034Y-48517393D01*
X102682186Y-48491491D01*
X102777737Y-48423877D01*
X102840140Y-48324843D01*
X102859944Y-48211634D01*
X102665872Y-38289682D01*
X171086890Y-37656154D01*
X185609696Y-52178960D01*
X185609696Y-52178960D01*
G37*
X185609696Y-52178960D02*
X185460737Y-112805001D01*
X179260001Y-112805001D01*
X179145196Y-112827837D01*
X179039222Y-112901884D01*
X176739222Y-115401884D01*
X176678298Y-115501834D01*
X176660001Y-115605001D01*
X176660001Y-122806286D01*
X130657761Y-123003721D01*
X130608890Y-116455001D01*
X131910001Y-116455001D01*
X131910001Y-116954457D01*
X131986122Y-117138228D01*
X132126774Y-117278881D01*
X132310545Y-117355001D01*
X132810001Y-117355001D01*
X132935001Y-117230001D01*
X132935001Y-116330001D01*
X133985001Y-116330001D01*
X133985001Y-117230001D01*
X134110001Y-117355001D01*
X134609457Y-117355001D01*
X134793228Y-117278881D01*
X134933880Y-117138228D01*
X135010001Y-116954457D01*
X135010001Y-116455001D01*
X134885001Y-116330001D01*
X133985001Y-116330001D01*
X132935001Y-116330001D01*
X132035001Y-116330001D01*
X131910001Y-116455001D01*
X130608890Y-116455001D01*
X130601294Y-115437013D01*
X145610001Y-115437013D01*
X145610001Y-116172989D01*
X145891646Y-116852942D01*
X146412060Y-117373356D01*
X147092013Y-117655001D01*
X147827989Y-117655001D01*
X148507942Y-117373356D01*
X149028356Y-116852942D01*
X149310001Y-116172989D01*
X149310001Y-115437013D01*
X150610001Y-115437013D01*
X150610001Y-116172989D01*
X150891646Y-116852942D01*
X151412060Y-117373356D01*
X152092013Y-117655001D01*
X152827989Y-117655001D01*
X153507942Y-117373356D01*
X154028356Y-116852942D01*
X154310001Y-116172989D01*
X154310001Y-115437013D01*
X155610001Y-115437013D01*
X155610001Y-116172989D01*
X155891646Y-116852942D01*
X156412060Y-117373356D01*
X157092013Y-117655001D01*
X157827989Y-117655001D01*
X158507942Y-117373356D01*
X159028356Y-116852942D01*
X159193188Y-116455001D01*
X160910001Y-116455001D01*
X160910001Y-116954457D01*
X160986122Y-117138228D01*
X161126774Y-117278881D01*
X161310545Y-117355001D01*
X161810001Y-117355001D01*
X161935001Y-117230001D01*
X161935001Y-116330001D01*
X162985001Y-116330001D01*
X162985001Y-117230001D01*
X163110001Y-117355001D01*
X163609457Y-117355001D01*
X163793228Y-117278881D01*
X163933880Y-117138228D01*
X164010001Y-116954457D01*
X164010001Y-116455001D01*
X163885001Y-116330001D01*
X162985001Y-116330001D01*
X161935001Y-116330001D01*
X161035001Y-116330001D01*
X160910001Y-116455001D01*
X159193188Y-116455001D01*
X159310001Y-116172989D01*
X159310001Y-115437013D01*
X159028356Y-114757060D01*
X158926841Y-114655545D01*
X160910001Y-114655545D01*
X160910001Y-115155001D01*
X161035001Y-115280001D01*
X161935001Y-115280001D01*
X161935001Y-114380001D01*
X162985001Y-114380001D01*
X162985001Y-115280001D01*
X163885001Y-115280001D01*
X164010001Y-115155001D01*
X164010001Y-114655545D01*
X163933880Y-114471774D01*
X163793228Y-114331121D01*
X163609457Y-114255001D01*
X163110001Y-114255001D01*
X162985001Y-114380001D01*
X161935001Y-114380001D01*
X161810001Y-114255001D01*
X161310545Y-114255001D01*
X161126774Y-114331121D01*
X160986122Y-114471774D01*
X160910001Y-114655545D01*
X158926841Y-114655545D01*
X158507942Y-114236646D01*
X157827989Y-113955001D01*
X157092013Y-113955001D01*
X156412060Y-114236646D01*
X155891646Y-114757060D01*
X155610001Y-115437013D01*
X154310001Y-115437013D01*
X154028356Y-114757060D01*
X153507942Y-114236646D01*
X152827989Y-113955001D01*
X152092013Y-113955001D01*
X151412060Y-114236646D01*
X150891646Y-114757060D01*
X150610001Y-115437013D01*
X149310001Y-115437013D01*
X149028356Y-114757060D01*
X148507942Y-114236646D01*
X147827989Y-113955001D01*
X147092013Y-113955001D01*
X146412060Y-114236646D01*
X145891646Y-114757060D01*
X145610001Y-115437013D01*
X130601294Y-115437013D01*
X130595462Y-114655545D01*
X131910001Y-114655545D01*
X131910001Y-115155001D01*
X132035001Y-115280001D01*
X132935001Y-115280001D01*
X132935001Y-114380001D01*
X133985001Y-114380001D01*
X133985001Y-115280001D01*
X134885001Y-115280001D01*
X135010001Y-115155001D01*
X135010001Y-114655545D01*
X134933880Y-114471774D01*
X134793228Y-114331121D01*
X134609457Y-114255001D01*
X134110001Y-114255001D01*
X133985001Y-114380001D01*
X132935001Y-114380001D01*
X132810001Y-114255001D01*
X132310545Y-114255001D01*
X132126774Y-114331121D01*
X131986122Y-114471774D01*
X131910001Y-114655545D01*
X130595462Y-114655545D01*
X130562232Y-110202839D01*
X172062154Y-109904993D01*
X172176792Y-109881334D01*
X172273650Y-109815605D01*
X172337982Y-109717814D01*
X172359992Y-109602728D01*
X171959992Y-56802728D01*
X171936287Y-56688100D01*
X171870520Y-56591268D01*
X171772703Y-56526975D01*
X171660586Y-56505002D01*
X120484508Y-56405244D01*
X115272133Y-51192869D01*
X115174806Y-51127837D01*
X115060001Y-51105001D01*
X114721322Y-51105001D01*
X114238478Y-50905001D01*
X114135737Y-50905001D01*
X113960001Y-50729265D01*
X113784265Y-50905001D01*
X113681524Y-50905001D01*
X113166964Y-51118138D01*
X112773138Y-51511964D01*
X112733798Y-51606940D01*
X109235737Y-55105001D01*
X95860001Y-55105001D01*
X95860001Y-53013756D01*
X98659365Y-53013756D01*
X98764565Y-53180801D01*
X99191478Y-53575435D01*
X99736914Y-53776657D01*
X99970001Y-53670001D01*
X99970001Y-52800001D01*
X101950001Y-52800001D01*
X101950001Y-53670001D01*
X102183088Y-53776657D01*
X102728524Y-53575435D01*
X103155437Y-53180801D01*
X103260637Y-53013756D01*
X103222086Y-52800001D01*
X101950001Y-52800001D01*
X99970001Y-52800001D01*
X98697916Y-52800001D01*
X98659365Y-53013756D01*
X95860001Y-53013756D01*
X95860001Y-51596246D01*
X98659365Y-51596246D01*
X98697916Y-51810001D01*
X99970001Y-51810001D01*
X99970001Y-50940001D01*
X101950001Y-50940001D01*
X101950001Y-51810001D01*
X103222086Y-51810001D01*
X103260637Y-51596246D01*
X103155437Y-51429201D01*
X102728524Y-51034567D01*
X102183088Y-50833345D01*
X101950001Y-50940001D01*
X99970001Y-50940001D01*
X99736914Y-50833345D01*
X99191478Y-51034567D01*
X98764565Y-51429201D01*
X98659365Y-51596246D01*
X95860001Y-51596246D01*
X95860001Y-50344431D01*
X112839144Y-50344431D01*
X112909375Y-50697505D01*
X113075890Y-50764848D01*
X113535737Y-50305001D01*
X114384265Y-50305001D01*
X114844112Y-50764848D01*
X115010627Y-50697505D01*
X115080858Y-50265571D01*
X115010627Y-49912497D01*
X114844112Y-49845154D01*
X114384265Y-50305001D01*
X113535737Y-50305001D01*
X113075890Y-49845154D01*
X112909375Y-49912497D01*
X112839144Y-50344431D01*
X95860001Y-50344431D01*
X95860001Y-49420890D01*
X113500154Y-49420890D01*
X113960001Y-49880737D01*
X114419848Y-49420890D01*
X114352505Y-49254375D01*
X113920571Y-49184144D01*
X113567497Y-49254375D01*
X113500154Y-49420890D01*
X95860001Y-49420890D01*
X95860001Y-48697072D01*
X102568034Y-48517393D01*
X102682186Y-48491491D01*
X102777737Y-48423877D01*
X102840140Y-48324843D01*
X102859944Y-48211634D01*
X102665872Y-38289682D01*
X171086890Y-37656154D01*
X185609696Y-52178960D01*
G04 #@! TD*
M02*
