M48
;DRILL file {KiCad 5.0.2+dfsg1-1} date Thu 29 Oct 2020 01:50:24 PM CET
;FORMAT={-:-/ absolute / inch / decimal}
FMAT,2
INCH,TZ
T1C0.0236
T2C0.0300
T3C0.0315
T4C0.0394
T5C0.0433
T6C0.0520
%
G90
G05
T1
X4.1717Y-2.4726
X4.1717Y-2.5514
X4.4866Y-1.9805
X4.4866Y-2.0593
T2
X4.9193Y-2.726
X4.9193Y-3.651
X5.0193Y-2.726
X5.0193Y-3.651
X5.1193Y-2.726
X5.1193Y-3.651
X5.2193Y-2.726
X5.2193Y-3.651
X5.3193Y-2.726
X5.3193Y-3.651
X5.4193Y-2.726
X5.4193Y-3.651
X5.5193Y-2.726
X5.5193Y-3.651
X5.6193Y-2.726
X5.6193Y-3.651
X5.7193Y-2.726
X5.7193Y-3.651
X5.8193Y-2.726
X5.8193Y-3.651
X5.9193Y-2.726
X5.9193Y-3.651
X6.0193Y-2.726
X6.0193Y-3.651
X6.1193Y-2.726
X6.1193Y-3.651
X6.2193Y-2.726
X6.2193Y-3.651
X6.3193Y-2.726
X6.3193Y-3.651
T3
X4.6047Y-2.3742
X4.9047Y-2.3742
X4.6047Y-2.5317
X4.9047Y-2.5317
T4
X5.1526Y-2.5317
X5.2526Y-2.5317
X5.3526Y-2.5317
X5.4526Y-2.5317
X5.5526Y-2.5317
X6.2732Y-2.5514
X6.3732Y-2.5514
X6.4732Y-2.5514
X6.5732Y-2.5514
T5
X4.4472Y-2.253
X4.4472Y-2.353
X4.4472Y-2.453
X5.8055Y-4.5593
X6.0024Y-4.5593
X6.1992Y-4.5593
X6.3961Y-4.5593
X4.6638Y-4.5593
X4.8606Y-4.5593
X5.0575Y-4.5593
X5.2543Y-4.5593
X5.7173Y-3.9096
X5.7173Y-4.0096
X5.7173Y-4.1096
X5.2874Y-3.9096
X5.2874Y-4.0096
X5.2874Y-4.1096
X4.8575Y-3.9096
X4.8575Y-4.0096
X4.8575Y-4.1096
X4.4276Y-3.9175
X4.4276Y-4.0175
X4.4276Y-4.1175
X6.5772Y-3.9096
X6.5772Y-4.0096
X6.5772Y-4.1096
X6.1472Y-3.9096
X6.1472Y-4.0096
X6.1472Y-4.1096
T6
X3.9748Y-2.0593
X3.9748Y-2.2561
T0
M30
